<?xml version="1.0" standalone="no"?>
<!DOCTYPE svg PUBLIC "-//W3C//DTD SVG 20010904//EN"
 "http://www.w3.org/TR/2001/REC-SVG-20010904/DTD/svg10.dtd">
<svg version="1.0" xmlns="http://www.w3.org/2000/svg"
 width="4167.000000pt" height="2084.000000pt" viewBox="0 0 4167.000000 2084.000000"
 preserveAspectRatio="xMidYMid meet">
<metadata>
Created by potrace 1.15, written by Peter Selinger 2001-2017
</metadata>
<g transform="translate(0.000000,2084.000000) scale(0.100000,-0.100000)"
fill="#000000" stroke="none">
<path d="M6460 18373 c-459 -31 -710 -65 -1085 -145 -1976 -421 -3693 -1737
-4621 -3543 -433 -842 -677 -1718 -744 -2665 -13 -186 -13 -742 0 -930 75
-1086 399 -2123 953 -3045 929 -1548 2432 -2669 4171 -3110 1284 -326 2644
-272 3896 153 2381 810 4136 2887 4535 5367 97 602 112 1256 44 1870 -85 767
-318 1564 -651 2229 l-69 138 -47 -5 c-26 -4 -164 -18 -307 -33 -143 -15 -262
-29 -265 -31 -2 -2 1 -13 8 -23 7 -11 48 -89 92 -172 334 -643 560 -1359 650
-2063 40 -317 45 -404 45 -820 -1 -428 -9 -560 -56 -880 -165 -1136 -627
-2185 -1351 -3068 -1463 -1787 -3782 -2621 -6043 -2176 -1447 285 -2742 1074
-3682 2244 -409 510 -772 1162 -998 1795 -540 1510 -470 3194 195 4670 669
1488 1945 2685 3485 3270 918 349 1944 475 2925 360 85 -10 155 -17 156 -17 7
10 -64 579 -73 587 -9 8 -186 26 -403 40 -131 9 -650 11 -760 3z"/>
<path d="M39975 17606 c-380 -73 -693 -308 -855 -640 -27 -55 -62 -146 -77
-201 -26 -94 -28 -111 -27 -300 0 -184 2 -208 27 -298 87 -324 308 -592 612
-745 102 -51 247 -97 353 -112 121 -18 383 -8 488 19 449 113 772 449 864 900
25 123 27 340 5 458 -70 368 -320 682 -665 834 -162 72 -258 91 -470 95 -126
2 -207 -1 -255 -10z m450 -251 c302 -84 542 -331 621 -643 129 -506 -145
-1007 -619 -1131 -268 -70 -559 -8 -779 168 -424 336 -451 1011 -57 1387 82
77 140 116 246 166 127 60 228 79 393 74 83 -3 158 -11 195 -21z"/>
<path d="M39865 17039 c-38 -5 -80 -11 -92 -14 l-23 -5 0 -580 0 -580 135 0
135 0 0 235 0 235 53 0 c91 -1 190 -19 224 -43 45 -30 69 -81 102 -218 16 -64
38 -137 49 -163 l21 -46 150 0 150 0 -19 44 c-10 24 -33 106 -50 182 -45 204
-84 276 -177 331 l-45 26 59 28 c114 55 172 137 173 245 0 178 -89 278 -283
318 -85 18 -434 21 -562 5z m425 -201 c102 -31 151 -129 106 -215 -31 -62
-104 -89 -263 -99 l-103 -7 0 161 c0 159 0 162 23 167 62 14 179 10 237 -7z"/>
<path d="M10769 17530 c-234 -42 -439 -149 -604 -315 -430 -432 -428 -1134 4
-1566 435 -435 1139 -435 1572 0 161 161 256 339 304 566 24 111 24 323 1 435
-88 419 -389 742 -797 856 -81 22 -118 26 -264 29 -93 2 -191 0 -216 -5z"/>
<path d="M6505 16164 c-1365 -107 -2564 -758 -3370 -1829 -652 -867 -971
-1896 -924 -2985 28 -664 184 -1267 480 -1860 241 -483 525 -871 915 -1250
177 -173 273 -254 473 -403 1195 -892 2778 -1142 4216 -665 271 90 640 259
888 407 1126 672 1911 1778 2167 3051 73 363 94 614 87 1015 -5 304 -19 454
-63 710 -274 1577 -1359 2907 -2855 3498 -360 142 -760 242 -1179 293 -129 15
-706 28 -835 18z"/>
<path d="M37108 14744 c-126 -30 -241 -111 -310 -218 -55 -85 -78 -168 -78
-281 0 -208 100 -370 284 -460 198 -97 434 -57 590 99 99 99 146 215 146 361
0 145 -46 260 -146 362 -125 128 -311 180 -486 137z"/>
<path d="M18333 11618 c4 -3077 -1 -2841 67 -3182 84 -412 296 -860 566 -1195
248 -308 621 -589 1003 -757 560 -246 1261 -309 1890 -168 615 138 1167 473
1543 936 261 320 465 755 548 1164 69 342 63 103 67 3192 l4 2792 -286 0 -285
0 0 -2677 c0 -1711 -4 -2727 -10 -2813 -25 -326 -96 -592 -232 -865 -305 -612
-866 -1050 -1513 -1180 -550 -111 -1091 -47 -1549 182 -631 316 -1053 858
-1191 1528 -51 249 -48 91 -52 3063 l-4 2762 -285 0 -285 0 4 -2782z"/>
<path d="M27795 14393 c-330 -26 -576 -76 -834 -170 -444 -161 -855 -447
-1153 -803 -282 -335 -496 -782 -583 -1214 -64 -317 -59 -69 -62 -3158 l-3
-2808 285 0 285 0 3 2788 c3 3039 -1 2816 57 3085 117 540 451 1018 935 1342
115 77 361 200 486 243 645 225 1418 155 1969 -178 164 -98 284 -193 426 -334
351 -351 553 -750 641 -1266 16 -99 18 -272 20 -2892 l3 -2788 290 0 290 0 3
2778 3 2777 22 138 c42 254 97 437 196 642 302 629 910 1089 1606 1214 395 72
838 43 1198 -76 219 -72 435 -184 619 -321 108 -81 303 -269 390 -377 271
-335 446 -756 492 -1187 8 -66 11 -986 11 -2843 l0 -2745 285 0 285 0 -3 2828
-2 2827 -23 140 c-104 646 -363 1163 -788 1576 -434 420 -987 680 -1631 766
-161 21 -587 24 -748 4 -897 -107 -1635 -569 -2073 -1298 -34 -55 -76 -131
-94 -167 l-32 -65 -58 111 c-464 892 -1447 1449 -2532 1436 -78 -1 -159 -3
-181 -5z"/>
<path d="M15463 11203 c3 -3450 -3 -3143 67 -3409 119 -449 393 -856 763
-1131 345 -256 723 -391 1175 -419 l112 -7 0 290 0 290 -107 6 c-269 15 -531
103 -764 258 -121 81 -322 281 -406 404 -151 224 -239 470 -263 740 -5 57 -9
1392 -10 3093 l0 2992 -285 0 -285 0 3 -3107z"/>
<path d="M36960 9815 l0 -3575 285 0 285 0 0 3575 0 3575 -285 0 -285 0 0
-3575z"/>
<path d="M12426 4663 c-38 -170 -406 -1911 -406 -1922 0 -7 33 -11 104 -11
l104 0 9 43 c167 796 359 1687 364 1687 3 0 185 -389 405 -865 l399 -865 105
0 105 0 209 983 c114 540 210 990 212 1000 5 15 -4 17 -100 17 -91 0 -105 -2
-110 -17 -3 -10 -80 -373 -172 -808 -91 -434 -170 -793 -173 -798 -4 -4 -176
359 -382 808 l-374 814 -142 1 -141 0 -16 -67z"/>
<path d="M22180 4723 c0 -10 -99 -473 -106 -495 -5 -16 -21 -18 -159 -18
l-154 0 -16 -77 c-9 -43 -18 -84 -20 -90 -3 -10 31 -13 150 -13 85 0 155 -4
155 -8 0 -5 -61 -294 -135 -642 -74 -349 -135 -638 -135 -642 0 -4 44 -8 99
-8 94 0 99 1 103 23 3 12 65 304 138 650 l134 627 177 0 176 0 17 83 c9 45 16
85 16 90 0 4 -79 7 -176 7 -162 0 -175 1 -170 18 7 22 106 485 106 495 0 4
-45 7 -100 7 -55 0 -100 -3 -100 -7z"/>
<path d="M33539 4473 l-56 -258 -156 -3 -155 -2 -11 -50 c-6 -27 -14 -68 -17
-90 l-7 -40 152 0 c109 0 151 -3 151 -12 0 -6 -61 -297 -135 -645 -74 -349
-135 -636 -135 -639 0 -2 45 -4 99 -4 l99 0 11 48 c5 26 68 318 138 649 l128
603 176 0 176 0 16 75 c10 42 17 82 17 90 0 12 -30 15 -173 17 l-173 3 53 245
c29 135 53 251 53 258 0 9 -26 12 -98 12 l-98 0 -55 -257z"/>
<path d="M34301 4578 c-17 -84 -34 -163 -37 -175 -6 -23 -5 -23 95 -23 96 0
101 1 106 23 22 96 65 303 65 314 0 10 -24 13 -98 13 l-99 0 -32 -152z"/>
<path d="M14830 4234 c-176 -37 -328 -123 -483 -273 -187 -181 -282 -383 -294
-626 -4 -81 -1 -128 11 -177 51 -219 236 -403 451 -449 92 -20 275 -15 370 10
158 41 339 147 464 272 56 56 133 154 157 202 l15 27 -109 0 c-105 0 -109 -1
-120 -24 -19 -42 -132 -155 -201 -200 -252 -166 -532 -163 -703 8 -61 61 -104
134 -124 210 -14 53 -18 143 -8 170 6 14 74 16 675 16 l668 0 11 38 c18 60 24
253 10 324 -35 184 -170 359 -332 433 -117 53 -314 70 -458 39z m313 -192
c163 -59 271 -208 292 -404 l6 -58 -570 0 c-314 0 -571 2 -571 5 0 3 12 29 26
58 100 199 284 353 488 408 95 25 246 22 329 -9z"/>
<path d="M18080 4235 c-273 -54 -559 -279 -688 -540 -232 -467 -31 -932 429
-995 273 -38 588 87 799 317 60 66 140 177 140 194 0 5 -46 9 -103 9 l-103 0
-42 -60 c-134 -190 -419 -316 -632 -280 -152 26 -279 122 -344 260 -26 55 -31
80 -34 163 l-4 97 674 0 675 0 14 63 c20 89 17 267 -5 342 -47 157 -167 310
-295 374 -133 67 -317 89 -481 56z m263 -180 c83 -21 133 -50 198 -112 85 -80
139 -207 139 -323 l0 -40 -565 0 c-380 0 -565 3 -565 10 0 23 62 131 110 191
111 140 279 248 435 279 67 13 187 11 248 -5z"/>
<path d="M19785 4234 c-101 -20 -189 -67 -262 -140 -35 -34 -63 -59 -63 -56 1
4 7 36 15 72 23 107 29 100 -82 100 l-98 0 -154 -728 c-85 -400 -156 -733
-159 -739 -3 -10 20 -13 96 -13 87 0 101 2 106 18 3 9 46 211 97 447 50 237
100 457 111 490 61 185 201 304 399 342 46 9 86 17 87 19 5 4 41 166 42 187 0
21 -34 21 -135 1z"/>
<path d="M21083 4235 c-170 -47 -302 -173 -358 -340 -22 -66 -26 -93 -23 -160
3 -70 7 -89 33 -131 41 -65 111 -112 259 -174 201 -85 250 -133 250 -245 -1
-130 -83 -253 -195 -291 -82 -28 -192 -25 -248 6 -69 38 -86 76 -86 188 l1 92
-97 0 -98 0 -7 -56 c-18 -146 12 -251 96 -335 69 -69 137 -92 275 -93 61 0
135 6 165 13 192 46 323 177 379 378 72 263 5 400 -246 502 -157 64 -222 100
-248 139 -61 90 -4 256 108 314 62 31 161 36 220 10 59 -26 81 -66 82 -149 l0
-63 97 0 c97 0 98 0 104 26 4 14 4 58 2 97 -8 117 -65 204 -166 254 -48 23
-71 28 -152 30 -61 2 -114 -2 -147 -12z"/>
<path d="M23355 4234 c-426 -95 -776 -510 -778 -924 -2 -176 49 -304 169 -430
130 -135 253 -184 464 -183 148 1 241 22 369 83 260 125 462 350 547 610 25
77 28 99 28 235 1 170 -9 213 -74 325 -74 126 -186 220 -321 267 -95 33 -293
42 -404 17z m268 -179 c81 -21 132 -50 195 -108 130 -123 172 -294 122 -493
-90 -355 -442 -620 -765 -575 -164 22 -281 109 -354 261 -31 66 -36 86 -39
170 -5 120 14 205 73 325 149 306 490 492 768 420z"/>
<path d="M25204 4239 c-131 -22 -279 -95 -401 -198 -40 -34 -73 -55 -73 -49 0
7 9 51 20 98 30 129 36 120 -77 120 l-98 0 -209 -983 c-115 -540 -211 -990
-214 -999 -4 -16 5 -18 96 -18 95 0 100 1 105 23 10 40 157 734 157 743 1 5 9
-7 20 -27 28 -52 103 -133 159 -168 194 -125 535 -114 791 25 138 76 292 214
373 337 120 180 179 428 147 614 -39 233 -233 428 -472 477 -82 17 -239 19
-324 5z m237 -179 c85 -16 191 -73 243 -131 149 -166 160 -410 28 -664 -26
-50 -64 -98 -132 -166 -81 -82 -109 -102 -190 -142 -122 -60 -201 -80 -320
-81 -154 0 -250 37 -347 135 -199 200 -166 555 75 811 185 196 414 281 643
238z"/>
<path d="M27742 4239 c-297 -50 -607 -290 -738 -573 -136 -297 -103 -596 89
-789 82 -82 157 -126 272 -158 117 -33 312 -31 446 4 155 41 299 122 423 238
62 57 176 189 176 203 0 3 -47 6 -105 6 l-104 0 -88 -87 c-125 -125 -238 -181
-409 -204 -324 -43 -576 156 -576 456 0 274 168 528 437 661 104 51 197 74
310 74 197 0 342 -84 415 -242 l32 -68 109 0 109 0 -6 28 c-4 15 -15 51 -25
80 -62 183 -232 324 -441 366 -83 17 -239 19 -326 5z"/>
<path d="M29395 4234 c-101 -20 -189 -67 -262 -140 -35 -34 -63 -59 -63 -56 1
4 7 36 15 72 24 108 29 101 -82 98 l-98 -3 -151 -712 c-83 -391 -154 -723
-158 -737 l-6 -26 99 0 c86 0 100 2 105 18 3 9 48 220 101 467 84 396 100 460
135 533 74 155 195 245 378 281 l86 17 18 84 c24 119 24 120 -14 119 -18 0
-64 -7 -103 -15z"/>
<path d="M30250 4235 c-243 -54 -480 -222 -629 -445 -177 -265 -201 -606 -58
-821 84 -126 208 -217 347 -255 96 -26 290 -23 395 5 94 25 219 83 307 142
114 77 266 238 317 337 l12 22 -108 0 -108 0 -28 -45 c-46 -72 -158 -168 -255
-218 -304 -157 -598 -86 -728 178 -35 70 -38 82 -38 168 l-1 92 672 3 672 2
13 43 c8 26 13 97 12 187 0 131 -3 152 -26 212 -71 188 -208 325 -377 379 -87
28 -296 35 -391 14z m252 -176 c191 -40 332 -203 345 -399 l6 -80 -567 0
c-311 0 -566 3 -566 6 0 26 97 180 149 236 178 193 417 282 633 237z"/>
<path d="M32057 4240 c-189 -32 -372 -128 -530 -279 -137 -131 -224 -278 -266
-451 -54 -224 -30 -398 75 -553 84 -122 189 -196 339 -238 113 -32 305 -32
424 0 137 36 261 106 377 213 l41 38 -23 -103 c-34 -150 -41 -137 76 -137 55
0 100 3 100 8 0 4 70 335 155 736 85 401 155 730 155 732 0 2 -45 4 -99 4 -70
0 -100 -4 -103 -12 -3 -7 -15 -63 -28 -125 l-23 -112 -21 42 c-30 62 -131 159
-199 191 -32 15 -89 34 -125 42 -72 15 -246 17 -325 4z m235 -181 c166 -35
298 -164 343 -334 38 -148 -3 -344 -106 -501 -51 -78 -174 -198 -255 -247
-302 -183 -669 -115 -794 148 -98 205 -32 494 159 697 115 123 231 193 376
229 82 20 202 24 277 8z"/>
<path d="M35260 4234 c-85 -18 -190 -70 -267 -134 -35 -28 -63 -47 -63 -43 1
4 7 37 15 73 8 36 14 68 15 73 0 4 -45 7 -100 7 -55 0 -100 -2 -100 -6 0 -3
-70 -333 -155 -733 -85 -401 -155 -731 -155 -735 0 -3 45 -6 100 -6 55 0 100
2 100 5 0 25 186 873 202 920 60 182 183 315 356 383 58 22 82 26 177 26 123
1 172 -14 249 -78 80 -65 126 -199 112 -330 -3 -33 -47 -251 -96 -484 -50
-233 -90 -428 -90 -433 0 -5 44 -9 98 -9 l99 0 93 438 c105 491 117 586 86
725 -40 180 -166 303 -351 342 -87 18 -239 18 -325 -1z"/>
<path d="M36935 4233 c-109 -23 -214 -68 -316 -135 -286 -188 -461 -487 -463
-793 -1 -184 50 -311 173 -435 83 -84 158 -127 271 -156 79 -21 269 -23 355
-5 150 32 295 108 398 209 31 31 57 50 57 42 0 -28 -40 -171 -63 -228 -54
-136 -180 -272 -309 -335 -168 -82 -398 -88 -545 -14 -94 48 -174 155 -204
271 l-11 46 -105 0 -105 0 7 -56 c28 -227 189 -406 420 -469 33 -9 112 -18
175 -22 261 -13 488 71 664 243 119 118 184 229 235 404 28 93 301 1363 301
1397 0 10 -23 13 -98 13 l-98 0 -24 -120 c-13 -66 -26 -120 -29 -120 -3 0 -17
20 -30 45 -29 54 -122 145 -180 174 -114 59 -321 78 -476 44z m257 -174 c229
-49 378 -274 347 -524 -48 -386 -441 -710 -794 -656 -230 36 -385 222 -385
462 0 364 350 726 707 728 40 1 96 -4 125 -10z"/>
<path d="M15926 4053 c18 -87 88 -420 155 -740 l122 -583 111 0 111 1 450 710
c248 391 458 724 468 740 l19 29 -109 0 -110 0 -389 -610 c-324 -508 -390
-606 -396 -587 -7 20 -248 1181 -248 1192 0 3 -49 5 -109 5 l-108 0 33 -157z"/>
<path d="M34071 3489 c-84 -396 -156 -729 -158 -740 -5 -18 1 -19 96 -19 96 0
101 1 106 23 18 79 305 1438 305 1447 0 6 -37 10 -98 10 l-98 0 -153 -721z"/>
</g>
</svg>
