<?xml version="1.0" standalone="no"?>
<!DOCTYPE svg PUBLIC "-//W3C//DTD SVG 20010904//EN"
 "http://www.w3.org/TR/2001/REC-SVG-20010904/DTD/svg10.dtd">
<svg version="1.0" xmlns="http://www.w3.org/2000/svg"
 width="700.000000pt" height="500.000000pt" viewBox="0 0 700.000000 500.000000"
 preserveAspectRatio="xMidYMid meet">
<metadata>
Created by potrace 1.15, written by Peter Selinger 2001-2017
</metadata>
<g transform="translate(0.000000,500.000000) scale(0.100000,-0.100000)"
fill="#000000" stroke="none">
<path d="M955 4880 c-327 -4 -375 -7 -410 -23 -59 -27 -122 -93 -145 -153 -18
-50 -19 -97 -25 -1341 -3 -708 -8 -1301 -10 -1318 -2 -16 -5 -404 -7 -862 -1
-586 1 -835 9 -845 6 -7 14 -26 17 -43 7 -31 34 -54 121 -101 l50 -28 345 -7
c448 -10 2487 -28 3200 -29 635 -1 1412 -7 1932 -16 378 -6 399 -4 463 40 65
45 116 101 126 141 11 39 15 438 5 454 -3 4 -1 559 4 1232 5 673 10 1550 12
1949 l2 725 -28 57 c-32 66 -79 111 -145 142 l-46 20 -2250 2 c-1237 1 -2385
3 -2550 6 -165 2 -466 1 -670 -2z m988 -79 c368 0 674 -4 680 -8 7 -4 853 -8
1882 -9 1028 -1 1891 -5 1917 -9 78 -12 133 -80 143 -177 3 -29 2 -989 -3
-2133 l-8 -2080 -21 -47 c-24 -53 -58 -87 -118 -121 l-40 -22 -639 3 c-352 2
-642 4 -645 6 -3 2 -487 7 -1076 10 -1923 11 -2659 17 -2715 21 -30 2 -176 8
-325 11 -148 4 -297 8 -330 9 -62 2 -155 38 -155 60 0 7 -9 20 -20 30 -36 33
-41 74 -41 381 -2 574 12 2179 18 2194 4 8 9 404 12 880 5 782 8 868 23 895
22 40 77 90 108 100 47 14 236 20 460 14 124 -4 526 -7 893 -8z"/>
<path d="M2580 3699 c-215 -25 -388 -163 -461 -369 -33 -93 -33 -247 0 -343
88 -259 360 -418 621 -363 204 42 363 192 424 395 20 69 21 199 1 276 -67 257
-323 434 -585 404z m156 -20 c272 -49 466 -320 425 -594 -54 -365 -441 -562
-775 -393 -117 59 -226 197 -262 333 -19 69 -18 209 2 276 79 268 336 428 610
378z"/>
<path d="M4233 3690 c-189 -50 -325 -177 -388 -363 -29 -88 -34 -218 -11 -304
62 -233 259 -396 499 -411 348 -22 631 286 577 626 -18 117 -73 226 -153 304
-144 143 -337 197 -524 148z m238 -10 c30 -5 91 -28 136 -51 258 -130 362
-437 237 -704 -36 -78 -157 -201 -235 -239 -215 -104 -455 -64 -620 104 -106
108 -148 213 -149 371 0 144 52 274 150 370 131 128 304 182 481 149z"/>
<path d="M2487 2395 c-86 -24 -160 -68 -233 -140 -112 -110 -164 -233 -164
-390 0 -154 52 -279 159 -385 111 -110 233 -160 391 -160 154 0 288 58 392
169 76 81 112 145 138 247 24 92 25 145 5 239 -42 198 -193 363 -384 419 -67
20 -235 20 -304 1z m324 -29 c172 -60 293 -193 339 -372 24 -92 25 -157 5
-243 -46 -192 -195 -348 -379 -397 -68 -18 -208 -18 -281 2 -174 45 -334 209
-374 384 -15 66 -13 197 4 265 53 202 231 356 450 389 56 8 170 -5 236 -28z"/>
<path d="M4265 2403 c-169 -41 -307 -144 -378 -282 -48 -93 -62 -152 -62 -261
1 -158 59 -288 179 -398 200 -182 492 -188 712 -14 59 46 135 154 165 232 30
78 37 233 14 320 -50 192 -204 345 -400 395 -56 14 -185 19 -230 8z m249 -28
c137 -40 266 -145 324 -265 88 -181 76 -376 -35 -542 -98 -149 -251 -228 -438
-228 -222 0 -407 124 -491 330 -36 86 -44 234 -20 330 31 121 110 234 207 299
138 92 301 119 453 76z"/>
<path d="M5639 511 c-51 -51 -31 -139 36 -161 58 -19 118 14 130 72 21 94 -97
157 -166 89z"/>
</g>
</svg>
